<?xml version="1.0" standalone="no"?>
<!DOCTYPE svg PUBLIC "-//W3C//DTD SVG 20010904//EN"
 "http://www.w3.org/TR/2001/REC-SVG-20010904/DTD/svg10.dtd">
<svg version="1.0" xmlns="http://www.w3.org/2000/svg"
 width="336.000000pt" height="336.000000pt" viewBox="0 0 336.000000 336.000000"
 preserveAspectRatio="xMidYMid meet">
<metadata>
Created by potrace 1.14, written by Peter Selinger 2001-2017
</metadata>
<g transform="translate(0.000000,336.000000) scale(0.100000,-0.100000)"
fill="#000000" stroke="none">
<path d="M270 3340 c0 -11 1 -20 3 -20 1 0 10 9 20 20 16 19 16 20 -3 20 -13
0 -20 -7 -20 -20z"/>
<path d="M957 3177 c-47 -105 -81 -202 -106 -302 -31 -124 -36 -169 -35 -315
0 -119 4 -143 27 -208 54 -149 182 -297 344 -394 114 -68 122 -68 47 3 -138
132 -232 271 -271 401 -20 68 -20 218 2 317 22 105 46 184 53 176 7 -6 7 -7
15 -85 4 -30 9 -66 12 -80 4 -14 9 -38 12 -55 17 -97 100 -238 194 -332 87
-88 86 -81 -20 139 -50 105 -71 164 -112 324 -28 108 -48 198 -46 201 3 2 41
-22 85 -54 44 -32 88 -64 98 -71 195 -133 258 -189 300 -266 26 -46 29 -61 30
-158 2 -106 -20 -244 -60 -380 -33 -113 46 8 104 160 83 215 86 349 10 491
-43 78 -83 119 -244 244 -203 157 -205 159 -250 195 -81 66 -130 107 -141 119
-9 8 -21 -9 -48 -70z"/>
<path d="M2910 2709 c-19 -5 -44 -10 -55 -13 -11 -2 -40 -9 -65 -15 -25 -7
-56 -14 -69 -17 -65 -14 -320 -113 -436 -169 -389 -189 -589 -415 -665 -751
-31 -135 -41 -333 -28 -507 5 -62 16 -101 19 -66 1 8 3 32 4 54 7 92 15 177
20 205 3 17 7 45 11 63 21 124 89 323 142 417 64 111 144 198 262 282 74 52
267 156 350 188 30 11 64 25 75 29 51 23 236 83 241 79 2 -3 -39 -38 -93 -79
-54 -40 -104 -79 -111 -86 -8 -7 -30 -25 -50 -40 -21 -15 -80 -70 -132 -123
-145 -147 -251 -333 -338 -595 -40 -117 -67 -235 -52 -218 4 4 26 42 48 83
100 189 121 228 147 275 117 213 213 345 336 465 153 150 302 290 308 290 3 0
7 -102 8 -228 1 -125 3 -299 4 -387 2 -147 -4 -256 -16 -274 -2 -4 -7 -23 -10
-41 -17 -97 -125 -238 -240 -315 -122 -81 -336 -181 -535 -251 -82 -29 -89
-33 -50 -30 116 11 381 81 495 131 220 97 319 172 399 303 35 57 73 148 82
197 2 11 6 31 9 45 14 74 17 148 20 495 2 209 6 430 10 491 4 62 3 114 -2 116
-4 3 -24 1 -43 -3z"/>
<path d="M415 1988 c3 -68 8 -223 10 -343 3 -121 7 -231 9 -245 2 -14 7 -43
11 -65 11 -63 73 -171 125 -218 71 -64 206 -130 311 -151 13 -3 56 -12 94 -20
82 -17 160 -26 148 -16 -4 3 -40 18 -78 33 -164 63 -332 161 -390 230 -60 70
-78 133 -77 277 1 214 7 400 13 403 4 1 32 -29 63 -68 32 -38 74 -90 94 -114
65 -76 119 -159 177 -273 68 -133 90 -170 97 -163 10 10 -14 144 -41 223 -38
110 -81 178 -173 275 -108 113 -106 117 31 59 114 -50 234 -131 288 -195 79
-94 152 -281 168 -432 15 -147 21 -155 31 -43 45 460 -127 710 -608 889 -43
15 -106 36 -140 45 -63 16 -74 18 -136 30 l-33 6 6 -124z"/>
<path d="M2842 1140 c-18 -17 -29 -30 -26 -30 4 0 -6 -10 -22 -22 -16 -13 -34
-27 -41 -33 -46 -39 -130 -95 -142 -95 -6 0 -11 -4 -11 -10 0 -5 -3 -9 -7 -8
-18 5 -50 -23 -63 -56 -7 -20 -17 -36 -22 -36 -4 0 -8 -5 -8 -12 0 -14 -57
-104 -90 -142 -63 -72 -150 -151 -215 -194 -38 -26 -73 -51 -77 -57 -4 -5 -8
-6 -8 -2 0 5 -17 -1 -37 -12 -147 -79 -414 -108 -613 -66 -8 2 -15 4 -15 5 0
1 -11 3 -25 6 -71 12 -219 83 -300 143 -86 65 -177 159 -232 241 -27 41 -55
75 -61 76 -58 12 -127 37 -197 72 -30 15 -57 29 -60 32 -3 3 -20 16 -38 29
-40 28 -40 20 -2 -88 51 -142 142 -296 221 -374 21 -20 35 -37 32 -37 -4 0 15
-21 42 -46 68 -62 181 -154 190 -154 4 0 19 -9 34 -19 32 -23 165 -91 189 -96
9 -2 36 -11 59 -19 23 -9 56 -18 74 -21 18 -3 36 -8 40 -10 17 -11 124 -19
259 -19 151 0 220 6 280 24 19 6 48 13 64 16 16 2 34 8 40 12 6 3 19 8 29 9
10 2 31 10 47 18 17 9 31 14 32 13 4 -4 119 62 156 89 17 13 32 21 32 18 0 -4
6 0 14 7 7 7 33 29 57 48 64 50 159 147 159 161 0 7 3 9 6 6 15 -15 151 193
198 303 27 64 37 92 38 118 1 6 4 12 8 12 4 0 7 6 8 13 0 6 4 26 7 42 4 17 8
37 10 45 2 8 4 15 5 15 1 0 3 16 5 35 2 19 6 45 9 58 6 27 8 28 -32 -8z"/>
</g>
</svg>
